# xmcd
#
# Track frame offsets:
#	150
#	47569
#	76265
#	89774
#	117969
#	136811
#	158131
#
# Disc length: 2674 seconds
#
# Revision: 12
# Processed by: cddbd v1.5.2PL0 Copyright (c) Steve Scherf et al.
# Submitted via: Jack! The Knife 20 Magnifico
#
DISCID=510a7007
DTITLE=Led Zeppelin - Presence
DYEAR=1976
DGENRE=Hard Rock
TTITLE0=Achilles Last Stand
TTITLE1=For Your Life
TTITLE2=Royal Orleans
TTITLE3=Nobody's Fault But Mine
TTITLE4=Candy Store Rock
TTITLE5=Hots On For Nowhere
TTITLE6=Tea For One
EXTD=Jimmy Page
EXTT0=Page, Plant
EXTT1=Page, Plant
EXTT2=Bonham, Jones, Page, Plant
EXTT3=Page, Plant
EXTT4=Page, Plant
EXTT5=Page, Plant
EXTT6=Page, Plant
PLAYORDER=
